<svg width="50" height="50" viewBox="0 0 50 50" fill="none" xmlns="http://www.w3.org/2000/svg">
<path d="M41.1397 30.6885L34.725 26.4119C34.2967 26.1269 33.9455 25.7403 33.7027 25.2867C33.4598 24.8331 33.333 24.3265 33.3333 23.8119V14.0036C33.9645 13.6408 34.4892 13.1184 34.8549 12.4889C35.2205 11.8593 35.4143 11.1447 35.4167 10.4167V4.16667C35.4154 3.06199 34.976 2.00291 34.1949 1.22178C33.4137 0.440655 32.3547 0.00126269 31.25 0L8.33332 0C7.22864 0.00126269 6.16957 0.440655 5.38844 1.22178C4.60731 2.00291 4.16792 3.06199 4.16666 4.16667V10.4167C4.16903 11.1447 4.36276 11.8593 4.72841 12.4889C5.09406 13.1184 5.61879 13.6408 6.24999 14.0036V32.5266C6.24271 35.4023 7.15422 38.205 8.85162 40.5262C10.549 42.8474 12.9435 44.5657 15.686 45.4305L25.0488 48.41C28.4153 49.2136 31.8409 49.7453 35.2926 50C37.5549 49.9999 39.7571 49.2721 41.5739 47.9239C43.3906 46.5757 44.7254 44.6789 45.381 42.5136C46.0366 40.3484 45.9782 38.0297 45.2144 35.9002C44.4507 33.7707 43.022 31.9434 41.1397 30.6885Z" fill="black"/>
<path d="M31.25 2.08333H8.33333C7.18274 2.08333 6.25 3.01607 6.25 4.16667V10.4167C6.25 11.5673 7.18274 12.5 8.33333 12.5H31.25C32.4006 12.5 33.3333 11.5673 33.3333 10.4167V4.16667C33.3333 3.01607 32.4006 2.08333 31.25 2.08333Z" fill="white"/>
<path opacity="0.2" d="M31.25 2.08333H28.3089C28.8612 2.08388 29.3908 2.30355 29.7814 2.69414C30.172 3.08472 30.3917 3.6143 30.3922 4.16667V10.4167C30.3917 10.969 30.172 11.4986 29.7814 11.8892C29.3908 12.2798 28.8612 12.4994 28.3089 12.5H31.25C31.8024 12.4994 32.3319 12.2798 32.7225 11.8892C33.1131 11.4986 33.3328 10.969 33.3333 10.4167V4.16667C33.3328 3.6143 33.1131 3.08472 32.7225 2.69414C32.3319 2.30355 31.8024 2.08388 31.25 2.08333Z" fill="black"/>
<path d="M8.33332 32.5266V31.4287C11.626 31.9169 14.6533 33.5145 16.9146 35.9572C19.1758 38.3998 20.5355 41.5412 20.7687 44.8617L16.3167 43.4449C13.9963 42.7131 11.9703 41.2592 10.5342 39.2952C9.09813 37.3311 8.32702 34.9597 8.33332 32.5266Z" fill="white"/>
<path d="M35.2926 47.9167C32.0559 47.6566 28.8428 47.1578 25.6795 46.4244L22.9024 45.5406C22.8215 41.5409 21.3055 37.7036 18.6311 34.7284C15.9566 31.7533 12.3019 29.8386 8.33334 29.3336V14.5833H31.25V23.8119C31.249 24.6695 31.4603 25.514 31.865 26.2701C32.2697 27.0263 32.8552 27.6705 33.5693 28.1454L39.9841 32.4219C41.4944 33.4288 42.6407 34.895 43.2535 36.6036C43.8663 38.3122 43.9131 40.1726 43.3871 41.9099C42.8611 43.6472 41.7901 45.1691 40.3324 46.2509C38.8748 47.3326 37.1077 47.9166 35.2926 47.9167Z" fill="#E83628"/>
<path opacity="0.2" d="M11.6139 14.5833H8.33334V29.3336C9.45018 29.4773 10.5494 29.7349 11.6139 30.1022V14.5833Z" fill="white"/>
<path opacity="0.2" d="M39.9841 32.4219L33.5693 28.1454C32.8552 27.6705 32.2697 27.0263 31.865 26.2701C31.4603 25.514 31.249 24.6695 31.25 23.8119V14.5833H27.6301V22.3733C27.6291 23.2309 27.8404 24.0755 28.2451 24.8316C28.6498 25.5877 29.2353 26.2319 29.9494 26.7068L36.3642 30.9834C37.8745 31.9903 39.0208 33.4564 39.6336 35.1651C40.2464 36.8737 40.2932 38.7341 39.7672 40.4714C39.2411 42.2087 38.1701 43.7307 36.7125 44.8124C35.2548 45.8941 33.4878 46.4781 31.6726 46.4781C28.7173 46.2378 25.7805 45.8085 22.8801 45.1927C22.8845 45.3094 22.9003 45.4234 22.9023 45.5406L25.6794 46.4244C28.8427 47.1578 32.0558 47.6566 35.2926 47.9167C37.1078 47.9166 38.8748 47.3326 40.3325 46.2509C41.7901 45.1692 42.8611 43.6472 43.3872 41.9099C43.9132 40.1726 43.8664 38.3122 43.2536 36.6036C42.6408 34.895 41.4944 33.4288 39.9841 32.4219Z" fill="black"/>
<path d="M41.1397 30.6885L34.725 26.4119C34.2967 26.1269 33.9455 25.7403 33.7027 25.2867C33.4598 24.8331 33.333 24.3265 33.3333 23.8119V14.0036C33.9645 13.6408 34.4892 13.1184 34.8549 12.4889C35.2205 11.8593 35.4143 11.1447 35.4167 10.4167V4.16667C35.4154 3.06199 34.976 2.00291 34.1949 1.22178C33.4137 0.440655 32.3547 0.00126269 31.25 0L8.33332 0C7.22864 0.00126269 6.16957 0.440655 5.38844 1.22178C4.60731 2.00291 4.16792 3.06199 4.16666 4.16667V10.4167C4.16903 11.1447 4.36276 11.8593 4.72841 12.4889C5.09406 13.1184 5.61879 13.6408 6.24999 14.0036V32.5266C6.24271 35.4023 7.15422 38.205 8.85162 40.5262C10.549 42.8474 12.9435 44.5657 15.686 45.4305L25.0488 48.41C28.4153 49.2136 31.8409 49.7453 35.2926 50C37.5549 49.9999 39.7571 49.2721 41.5739 47.9239C43.3906 46.5757 44.7254 44.6789 45.381 42.5136C46.0366 40.3484 45.9782 38.0297 45.2144 35.9002C44.4507 33.7707 43.022 31.9434 41.1397 30.6885Z" fill="url(#paint0_linear_6_395)"/>
<defs>
<linearGradient id="paint0_linear_6_395" x1="3.57339" y1="3.03683" x2="45.0943" y2="44.5577" gradientUnits="userSpaceOnUse">
<stop stop-color="white" stop-opacity="0"/>
<stop offset="1" stop-color="white" stop-opacity="0.1"/>
</linearGradient>
</defs>
</svg>
