<svg width="80" height="80" viewBox="0 0 80 80" fill="none" xmlns="http://www.w3.org/2000/svg">
<path d="M16.6667 44.4597C16.6667 43.5392 17.4128 42.793 18.3333 42.793H61.6667C62.5872 42.793 63.3333 43.5392 63.3333 44.4597V69.4597C63.3333 71.3006 61.8409 72.793 60 72.793H20C18.1591 72.793 16.6667 71.3006 16.6667 69.4597V44.4597Z" fill="#F6B22F"/>
<path fill-rule="evenodd" clip-rule="evenodd" d="M18.3333 41.1263H61.6667C63.5076 41.1263 65 42.6187 65 44.4597V69.4597C65 72.2211 62.7614 74.4597 60 74.4597H20C17.2386 74.4597 15 72.2211 15 69.4597V44.4597C15 42.6187 16.4924 41.1263 18.3333 41.1263ZM18.3333 42.793C17.4128 42.793 16.6667 43.5392 16.6667 44.4597V69.4597C16.6667 71.3006 18.1591 72.793 20 72.793H60C61.8409 72.793 63.3333 71.3006 63.3333 69.4597V44.4597C63.3333 43.5392 62.5872 42.793 61.6667 42.793H18.3333Z" fill="#E68C06"/>
<path fill-rule="evenodd" clip-rule="evenodd" d="M18.1771 50.5208C18.6373 50.5208 19.0104 50.8939 19.0104 51.3542V66.5625C19.0104 67.0227 18.6373 67.3958 18.1771 67.3958C17.7168 67.3958 17.3438 67.0227 17.3438 66.5625V51.3542C17.3438 50.8939 17.7168 50.5208 18.1771 50.5208Z" fill="#FFC24A"/>
<path fill-rule="evenodd" clip-rule="evenodd" d="M16.9612 70.8317C17.4843 71.9882 18.6482 72.793 20 72.793H60C61.8409 72.793 63.3333 71.3006 63.3333 69.4597V44.4597C63.3333 43.5392 62.5872 42.793 61.6667 42.793V67.793C61.6667 69.6339 60.1742 71.1263 58.3333 71.1263H18.3333C17.8442 71.1263 17.3797 71.0209 16.9612 70.8317Z" fill="#E7A320"/>
<path d="M16.6667 41.1263H63.3333V49.3555H16.6667V41.1263Z" fill="#E7A320"/>
<path d="M57.9977 55.8898C57.9977 56.3362 57.6358 56.698 57.1894 56.698C56.7431 56.698 56.3813 56.3362 56.3813 55.8898C56.3813 55.4434 56.7431 55.0816 57.1894 55.0816C57.6358 55.0816 57.9977 55.4434 57.9977 55.8898Z" fill="#E88E07"/>
<path d="M59.4896 69.5889C59.4896 70.0353 59.1278 70.3972 58.6813 70.3972C58.235 70.3972 57.8732 70.0353 57.8732 69.5889C57.8732 69.1426 58.235 68.7808 58.6813 68.7808C59.1278 68.7808 59.4896 69.1426 59.4896 69.5889Z" fill="#E88E07"/>
<path d="M61.2709 57.7891C61.2709 58.3917 60.7824 58.8802 60.1798 58.8802C59.5772 58.8802 59.0887 58.3917 59.0887 57.7891C59.0887 57.1865 59.5772 56.698 60.1798 56.698C60.7824 56.698 61.2709 57.1865 61.2709 57.7891Z" fill="#E88E07"/>
<path d="M60.7253 54.2431C60.7253 54.695 60.359 55.0614 59.9071 55.0614C59.4551 55.0614 59.0887 54.695 59.0887 54.2431C59.0887 53.7912 59.4551 53.4247 59.9071 53.4247C60.359 53.4247 60.7253 53.7912 60.7253 54.2431Z" fill="#E88E07"/>
<path d="M61.3907 62.4767C61.3907 63.4141 60.6307 64.1739 59.6934 64.1739C58.7561 64.1739 57.9962 63.4141 57.9962 62.4767C57.9962 61.5393 58.7561 60.7795 59.6934 60.7795C60.6307 60.7795 61.3907 61.5393 61.3907 62.4767Z" fill="#E88E07"/>
<path d="M57.9977 59.4258C57.9977 60.0283 57.5092 60.5168 56.9066 60.5168C56.304 60.5168 55.8155 60.0283 55.8155 59.4258C55.8155 58.8231 56.304 58.3347 56.9066 58.3347C57.5092 58.3347 57.9977 58.8231 57.9977 59.4258Z" fill="#E88E07"/>
<path d="M61.6667 66.9019C61.6667 67.5046 61.1782 67.993 60.5756 67.993C59.973 67.993 59.4845 67.5046 59.4845 66.9019C59.4845 66.2993 59.973 65.8109 60.5756 65.8109C61.1782 65.8109 61.6667 66.2993 61.6667 66.9019Z" fill="#E88E07"/>
<path d="M58.5133 66.0126C58.5133 66.3782 58.2169 66.6744 57.8513 66.6744C57.4858 66.6744 57.1895 66.3782 57.1895 66.0126C57.1895 65.6471 57.4858 65.3507 57.8513 65.3507C58.2169 65.3507 58.5133 65.6471 58.5133 66.0126Z" fill="#E88E07"/>
<path d="M56.2181 68.0937C56.2181 68.6963 55.7296 69.1848 55.127 69.1848C54.5244 69.1848 54.0359 68.6963 54.0359 68.0937C54.0359 67.4912 54.5244 67.0027 55.127 67.0027C55.7296 67.0027 56.2181 67.4912 56.2181 68.0937Z" fill="#E88E07"/>
<path d="M56.3813 64.376C56.3813 64.9786 55.8928 65.4671 55.2902 65.4671C54.6876 65.4671 54.1991 64.9786 54.1991 64.376C54.1991 63.7734 54.6876 63.2849 55.2902 63.2849C55.8928 63.2849 56.3813 63.7734 56.3813 64.376Z" fill="#E88E07"/>
<path d="M52.3807 69.5788C52.3807 70.0307 52.0142 70.3972 51.5623 70.3972C51.1104 70.3972 50.744 70.0307 50.744 69.5788C50.744 69.1269 51.1104 68.7605 51.5623 68.7605C52.0142 68.7605 52.3807 69.1269 52.3807 69.5788Z" fill="#E88E07"/>
<path d="M10 36.9596C10 33.2778 12.9847 30.2929 16.6667 30.2929H63.3333C67.0152 30.2929 70 33.2778 70 36.9596V43.6263C70 44.5468 69.2538 45.2929 68.3333 45.2929H11.6667C10.7462 45.2929 10 44.5468 10 43.6263V36.9596Z" fill="#FFC658"/>
<path fill-rule="evenodd" clip-rule="evenodd" d="M16.6667 28.6263H63.3333C67.9358 28.6263 71.6667 32.3573 71.6667 36.9596V43.6263C71.6667 45.4673 70.1743 46.9596 68.3333 46.9596H11.6667C9.82576 46.9596 8.33334 45.4673 8.33334 43.6263V36.9596C8.33334 32.3573 12.0643 28.6263 16.6667 28.6263ZM16.6667 30.2929C12.9848 30.2929 10 33.2778 10 36.9596V43.6263C10 44.5468 10.7462 45.2929 11.6667 45.2929H68.3333C69.2538 45.2929 70 44.5468 70 43.6263V36.9596C70 33.2778 67.0153 30.2929 63.3333 30.2929H16.6667Z" fill="#CF8C0B"/>
<path fill-rule="evenodd" clip-rule="evenodd" d="M10.223 44.4596C10.5112 44.9578 11.0497 45.2929 11.6667 45.2929H68.3333C69.2538 45.2929 70 44.5468 70 43.6263V36.9596C70 34.0172 68.0938 31.52 65.4489 30.6356C67.1914 31.8383 68.3333 33.8489 68.3333 36.1263V42.7929C68.3333 43.7134 67.5872 44.4596 66.6667 44.4596H10.223Z" fill="#F2B43D"/>
<path d="M36.875 30.2929H43.7831V72.7929H36.875V30.2929Z" fill="#FF4646"/>
<path fill-rule="evenodd" clip-rule="evenodd" d="M35.2083 28.6263H45.4498V74.4596H35.2083V28.6263ZM36.875 30.2929V72.7929H43.7831V30.2929H36.875Z" fill="#CD2222"/>
<path fill-rule="evenodd" clip-rule="evenodd" d="M38.5417 33.6263C39.0019 33.6263 39.375 33.9993 39.375 34.4596V47.3763C39.375 47.8365 39.0019 48.2096 38.5417 48.2096C38.0814 48.2096 37.7083 47.8365 37.7083 47.3763V34.4596C37.7083 33.9993 38.0814 33.6263 38.5417 33.6263Z" fill="#FF7575"/>
<path fill-rule="evenodd" clip-rule="evenodd" d="M41.1458 43.3138C41.6061 43.3138 41.9792 43.6869 41.9792 44.1472V70.3972C41.9792 70.8574 41.6061 71.2305 41.1458 71.2305C40.6856 71.2305 40.3125 70.8574 40.3125 70.3972V44.1472C40.3125 43.6869 40.6856 43.3138 41.1458 43.3138Z" fill="#F02E2E"/>
<path d="M22.9872 34.0518C23.7494 36.1621 19.0817 34.9258 17.7246 36.8509C15.485 40.028 12.2866 40.302 11.5245 38.1918C10.7623 36.0815 11.9551 33.3588 15.1204 32.2155C18.2858 31.0723 22.2252 31.9416 22.9872 34.0518Z" fill="#FFE68F"/>
<path d="M23.4859 29.5074C29.7697 27.6367 36.228 28.522 38.8322 29.5074L42.0614 27.6367C31.6447 23.1574 29.0926 23.7304 26.2802 23.7303L23.4859 29.5074Z" fill="#DC2C2C"/>
<path fill-rule="evenodd" clip-rule="evenodd" d="M39.6678 30.9495C39.2343 31.2006 38.7109 31.2435 38.2425 31.0662C35.9698 30.2063 29.8857 29.3411 23.9616 31.1048C23.3287 31.2932 22.6443 31.0902 22.2164 30.5873C21.7887 30.0843 21.6981 29.3761 21.9856 28.7817L24.7798 23.0047C25.0582 22.4293 25.6411 22.0637 26.2803 22.0638C26.5249 22.0638 26.7793 22.0583 27.0478 22.0526C28.1966 22.028 29.6043 21.998 31.6174 22.364C34.0826 22.8123 37.454 23.8412 42.7199 26.1056C43.2988 26.3545 43.6878 26.9086 43.7253 27.5376C43.7627 28.1666 43.4422 28.7629 42.8969 29.0788L39.6678 30.9495ZM40.1328 26.8278C32.2546 23.6135 29.4965 23.6702 27.123 23.7188C26.8393 23.7247 26.5611 23.7304 26.2803 23.7304L23.486 29.5074C24.1878 29.2984 24.8919 29.1238 25.5925 28.98C31.1643 27.8357 36.5189 28.6321 38.8323 29.5074L42.0615 27.6367C41.3863 27.3463 40.7442 27.0773 40.1328 26.8278Z" fill="#B31B1B"/>
<path d="M58.6886 29.7775C51.2823 27.7919 45.974 27.9985 42.1644 29.0452L39.9276 28.3427C49.4471 23.3131 53.0752 24.6275 55.5394 25.0765L58.6886 29.7775Z" fill="#BF2222"/>
<path fill-rule="evenodd" clip-rule="evenodd" d="M41.6347 30.6313C41.9405 30.7273 42.2692 30.7328 42.5814 30.6471C46.0415 29.6964 51.0399 29.4566 58.2261 31.3832C58.8982 31.5633 59.6197 31.3059 60.0342 30.738C60.4489 30.1702 60.4688 29.412 60.0843 28.838L56.9352 24.1369C56.6902 23.7712 56.3066 23.5207 55.8697 23.4411C55.7047 23.4111 55.5254 23.3745 55.3308 23.3349C54.1953 23.1037 52.5445 22.7676 50.2402 23.0013C47.554 23.2739 44.0527 24.2955 39.1652 26.8777C38.5668 27.194 38.2107 27.8328 38.2614 28.499C38.3122 29.1651 38.7601 29.7286 39.3979 29.9289L41.6347 30.6313ZM42.2165 29.031C45.5926 28.1135 50.1392 27.8558 56.2692 29.189C57.0497 29.3587 57.8559 29.5542 58.6886 29.7775L55.5394 25.0765C55.3492 25.0418 55.1519 25.002 54.9456 24.9603C52.691 24.505 49.348 23.8299 42.0771 27.2653C41.3958 27.5872 40.6802 27.9452 39.9276 28.3427L42.1644 29.0452C42.1817 29.0405 42.1991 29.0357 42.2165 29.031Z" fill="#9D1818"/>
<path fill-rule="evenodd" clip-rule="evenodd" d="M54.3916 25.6752C54.0229 25.9569 53.9483 26.4797 54.2248 26.8427L55.3398 28.3067C55.6163 28.6697 56.1394 28.7357 56.5081 28.4539C56.8768 28.1722 56.9514 27.6494 56.6748 27.2863L55.5599 25.8224C55.2833 25.4593 54.7603 25.3934 54.3916 25.6752Z" fill="#DE3838"/>
<path d="M15.4367 21.5166C25.8151 21.1462 33.6655 26.0044 36.826 28.3784L38.8742 27.6103C31.9965 18.792 21.2622 15.6553 18.2492 15.527L17.6242 18.7041L15.4367 21.5166Z" fill="#EA2F2F"/>
<path fill-rule="evenodd" clip-rule="evenodd" d="M37.4112 29.939C36.8782 30.1388 36.2801 30.0528 35.825 29.711C32.8089 27.4454 25.332 22.8312 15.4962 23.1823C14.8493 23.2053 14.2476 22.8518 13.9528 22.2755C13.6582 21.6992 13.7238 21.0043 14.1212 20.4934L16.0653 17.9936L16.6139 15.2053C16.7728 14.3975 17.4978 13.8268 18.3202 13.8618C20.1318 13.939 23.7983 14.8488 27.8402 16.8106C31.9235 18.7923 36.5534 21.9247 40.1884 26.5853C40.5147 27.0036 40.6223 27.5522 40.4783 28.0627C40.3344 28.5732 39.9561 28.9847 39.4594 29.1709L37.4112 29.939ZM17.6242 18.7041L15.4368 21.5166C16.154 21.491 16.8592 21.4904 17.5516 21.5122C26.8778 21.8058 33.884 26.1685 36.826 28.3784L38.8743 27.6103C38.5089 27.142 38.1328 26.6897 37.7474 26.2529C30.878 18.4673 21.1022 15.6486 18.2493 15.527L17.6242 18.7041Z" fill="#B31B1B"/>
<path fill-rule="evenodd" clip-rule="evenodd" d="M22.441 21.5603C20.4176 21.0193 18.8045 20.9775 18.3163 21.0134C17.8573 21.0472 17.4578 20.7024 17.4241 20.2434C17.3903 19.7844 17.7351 19.385 18.1941 19.3513C18.8864 19.3003 20.6866 19.3661 22.8714 19.9502C23.3161 20.069 23.5802 20.5258 23.4613 20.9704C23.3424 21.4151 22.8857 21.6792 22.441 21.5603Z" fill="#FF4444"/>
<path d="M64.8302 22.6709C55.6687 22.344 49.9231 25.0362 47.1332 27.1318L43.697 27.1083C49.7682 19.324 59.92 16.6892 62.5796 16.5758L62.5589 19.6105L64.8302 22.6709Z" fill="#D92525"/>
<path fill-rule="evenodd" clip-rule="evenodd" d="M47.1218 28.7984C47.4867 28.8009 47.8424 28.6836 48.1342 28.4644C50.6039 26.6092 55.9711 24.0225 64.7707 24.3366C65.4107 24.3594 66.0073 24.0134 66.3053 23.4465C66.6034 22.8796 66.5502 22.192 66.1685 21.6777L64.2293 19.0647L64.2462 16.5872C64.2493 16.1309 64.0652 15.6933 63.7368 15.3765C63.4085 15.0596 62.9646 14.8912 62.5087 14.9107C60.9025 14.9791 57.4859 15.7439 53.7293 17.4476C49.9405 19.1658 45.6337 21.9151 42.3828 26.0833C41.9923 26.5839 41.9202 27.2629 42.1968 27.8344C42.4734 28.4059 43.0507 28.7706 43.6856 28.7749L47.1218 28.7984ZM62.5589 19.6105L64.8302 22.6709C64.1117 22.6453 63.4142 22.6382 62.7376 22.648C54.7857 22.7626 49.7042 25.2005 47.1332 27.1317L43.697 27.1083C44.1498 26.5277 44.6254 25.9757 45.1188 25.4513C50.2463 20.002 57.3066 17.5283 60.9113 16.8068C61.6105 16.6669 62.1797 16.5929 62.5796 16.5758L62.5589 19.6105Z" fill="#B31B1B"/>
<path fill-rule="evenodd" clip-rule="evenodd" d="M61.0302 16.9769C61.4905 16.9769 61.8636 17.3501 61.8636 17.8103V19.0517C61.8636 19.5119 61.4905 19.885 61.0302 19.885C60.57 19.885 60.1969 19.5119 60.1969 19.0517V17.8103C60.1969 17.3501 60.57 16.9769 61.0302 16.9769Z" fill="#FF5252"/>
<path d="M45.3269 11.2825C37.4217 15.5677 38.9584 25.0324 38.9583 27.7928L40.625 28.0533C41.3162 21.2824 46.0181 13.0533 49.612 16.6991C52.0331 19.1553 43.8385 27.8478 40.3508 29.4074H43.1153C47.4003 28.8345 53.9188 22.8898 55.1872 17.4283C56.1548 13.2616 53.2059 7.01161 45.3269 11.2825Z" fill="#E33030"/>
<path fill-rule="evenodd" clip-rule="evenodd" d="M38.6842 29.4368C37.8814 29.303 37.2917 28.6083 37.2917 27.7928C37.2917 27.5623 37.2746 27.2303 37.2533 26.8176C37.1727 25.2531 37.0324 22.5312 37.5397 19.8047C38.2038 16.234 40.0052 12.2714 44.5327 9.81726C46.6795 8.65351 48.6379 8.12501 50.3889 8.18952C52.1713 8.25519 53.6388 8.93418 54.7335 9.9936C56.8474 12.0393 57.3949 15.2892 56.8107 17.8053C56.0777 20.9617 53.8952 24.0831 51.4393 26.4509C49.0112 28.792 45.994 30.7041 43.3362 31.0594C43.2629 31.0692 43.1892 31.0741 43.1152 31.0741H40.3507C39.5642 31.0741 38.8848 30.5244 38.7207 29.7553C38.698 29.6489 38.6861 29.5423 38.6842 29.4368ZM43.5363 29.3355C47.8151 28.4518 53.9597 22.7138 55.1872 17.4283C56.1547 13.2616 53.2059 7.0116 45.3269 11.2825C38.3354 15.0723 38.7292 22.9137 38.9137 26.5853C38.9378 27.0652 38.9583 27.4738 38.9583 27.7928L40.625 28.0533C40.6356 27.9494 40.6472 27.8453 40.6596 27.7408C40.6783 27.584 40.6991 27.4266 40.7219 27.2688C40.7633 26.9818 40.8114 26.6933 40.8658 26.404C42.0627 20.0396 46.3061 13.3455 49.612 16.6991C51.5527 18.6678 46.6727 24.6435 42.8633 27.7408C42.6677 27.8998 42.4749 28.0513 42.286 28.1943C42.2748 28.2027 42.2637 28.2111 42.2527 28.2194C41.5731 28.7313 40.9448 29.1317 40.4182 29.3767C40.3955 29.3872 40.373 29.3975 40.3507 29.4074H43.1152C43.2534 29.389 43.3938 29.3649 43.5363 29.3355ZM42.7302 25.6612C43.817 24.685 44.9405 23.5193 45.9057 22.336C46.9512 21.0543 47.7408 19.8368 48.1332 18.8733C48.4096 18.194 48.3944 17.9059 48.3789 17.8235C48.1292 17.5828 47.9469 17.5098 47.8432 17.4855C47.7385 17.461 47.5972 17.4585 47.3821 17.5404C46.885 17.7298 46.1771 18.3073 45.396 19.4248C44.2751 21.0284 43.2985 23.3191 42.7302 25.6612Z" fill="#BC2020"/>
<path fill-rule="evenodd" clip-rule="evenodd" d="M42.4659 14.1057C46.1383 9.35983 50.7153 10.1798 51.1009 10.2569C51.5522 10.3472 51.8449 10.7862 51.7547 11.2375C51.6644 11.6888 51.2253 11.9815 50.7741 11.8912C50.6388 11.8642 46.8824 11.1217 43.7841 15.1257C43.5024 15.4897 42.979 15.5565 42.615 15.2748C42.251 14.9932 42.1842 14.4697 42.4659 14.1057Z" fill="#FF4444"/>
<path fill-rule="evenodd" clip-rule="evenodd" d="M17.2392 33.2978C17.2528 33.7579 16.8908 34.1418 16.4308 34.1553C15.4159 34.1852 14.6968 34.8837 14.2198 35.5515C13.9523 35.926 13.4318 36.0127 13.0573 35.7452C12.6828 35.4777 12.596 34.9572 12.8635 34.5827C13.4282 33.7923 14.5632 32.5428 16.3818 32.4894C16.8418 32.4758 17.2257 32.8378 17.2392 33.2978Z" fill="white"/>
<path d="M23.75 15.0146C26.2499 21.7854 34.3229 26.4208 39.8958 29.3896C34.6732 26.0737 29.6592 19.9812 28.2292 17.3062C26.7992 14.6312 27.7604 11.1083 31.5625 11.7854C36.4858 12.6622 39.4923 24.1546 41.0938 29.0625C41.2848 26.2515 40.5923 16.2434 36.4583 11.1604C30.1041 3.34793 21.322 8.43874 23.75 15.0146Z" fill="#F23535"/>
<path fill-rule="evenodd" clip-rule="evenodd" d="M40.9025 30.7183C40.3994 31.0991 39.7024 31.175 39.1122 30.8606C36.3148 29.3703 32.7922 27.412 29.6415 24.9389C26.5047 22.4768 23.5897 19.3924 22.1865 15.5919C20.6471 11.4225 22.7013 7.59715 26.1704 6.15322C29.6683 4.69727 34.2042 5.74772 37.7512 10.1088C40.083 12.9758 41.3534 17.0802 42.035 20.6509C42.7224 24.2519 42.8635 27.6018 42.7566 29.1755C42.7025 29.9718 42.0915 30.6178 41.2996 30.7164C41.1652 30.7331 41.0322 30.7333 40.9025 30.7183ZM40.5995 22.1088C39.9883 18.3244 38.754 13.9831 36.4582 11.1604C30.1041 3.34796 21.322 8.43877 23.75 15.0146C25.0857 18.6323 28.0124 21.6403 31.2987 24.1103C33.9667 26.1155 36.8717 27.766 39.3547 29.1002C39.5375 29.1983 39.7179 29.2948 39.8958 29.3896C39.7064 29.2694 39.5173 29.1454 39.3286 29.0182C36.8256 27.33 34.3991 25.0513 32.4251 22.8715C30.4446 20.6846 28.9194 18.5973 28.2292 17.3063C26.7992 14.6313 27.7604 11.1083 31.5625 11.7854C34.8271 12.3668 37.2488 17.6157 38.977 22.5174C39.5677 24.1927 40.0772 25.8273 40.5118 27.2213C40.5902 27.4728 40.6662 27.7165 40.7398 27.9512C40.7475 27.9756 40.7551 27.9999 40.7627 28.0242C40.8791 28.3951 40.9894 28.7428 41.0937 29.0625C41.109 28.8385 41.1186 28.5688 41.1212 28.2595C41.1337 26.8428 41.0012 24.5962 40.5995 22.1088ZM38.4852 26.3288C37.8167 24.2137 37.0159 21.8039 36.0459 19.5781C35.287 17.8366 34.4654 16.3097 33.5908 15.1915C32.696 14.0476 31.9099 13.5402 31.2703 13.4263C30.5756 13.3025 30.1607 13.3958 29.9325 13.5006C29.7157 13.6003 29.5549 13.7603 29.4393 14.0037C29.1802 14.5494 29.1714 15.5337 29.699 16.5204C30.3209 17.6839 31.8289 19.7585 33.8682 21.9806C35.2552 23.4919 36.8394 25.0182 38.4852 26.3288Z" fill="#BC2020"/>
<path fill-rule="evenodd" clip-rule="evenodd" d="M27.3566 8.5576C27.6147 8.93868 27.5151 9.45676 27.1341 9.71493C26.3042 10.2771 24.7025 12.2331 25.8339 15.2989C25.9932 15.7308 25.7724 16.2099 25.3407 16.3693C24.9088 16.5286 24.4297 16.3078 24.2703 15.876C22.8184 11.9418 24.8764 9.23118 26.1993 8.33501C26.5803 8.07693 27.0985 8.17657 27.3566 8.5576Z" fill="#FF7878"/>
</svg>
