<svg width="17" height="17" viewBox="0 0 17 17" fill="none" xmlns="http://www.w3.org/2000/svg">
<path d="M14.3333 1H2.66667C1.74619 1 1 1.74619 1 2.66667V14.3333C1 15.2538 1.74619 16 2.66667 16H14.3333C15.2538 16 16 15.2538 16 14.3333V2.66667C16 1.74619 15.2538 1 14.3333 1Z" stroke="black" stroke-linecap="round" stroke-linejoin="round"/>
<path d="M5.58337 6.83333C6.27373 6.83333 6.83337 6.27368 6.83337 5.58333C6.83337 4.89297 6.27373 4.33333 5.58337 4.33333C4.89302 4.33333 4.33337 4.89297 4.33337 5.58333C4.33337 6.27368 4.89302 6.83333 5.58337 6.83333Z" stroke="black" stroke-linecap="round" stroke-linejoin="round"/>
<path d="M16 11L11.8333 6.83333L2.66663 16" stroke="black" stroke-linecap="round" stroke-linejoin="round"/>
</svg>
