<svg width="17" height="14" viewBox="0 0 17 14" fill="none" xmlns="http://www.w3.org/2000/svg">
<path d="M11.9091 13.2727V11.9091C11.9091 11.1858 11.6218 10.4921 11.1103 9.98062C10.5988 9.46916 9.90514 9.18182 9.18182 9.18182H3.72727C3.00396 9.18182 2.31026 9.46916 1.7988 9.98062C1.28734 10.4921 1 11.1858 1 11.9091V13.2727" stroke="black" stroke-linecap="round" stroke-linejoin="round"/>
<path d="M6.45457 6.45455C7.9608 6.45455 9.18184 5.2335 9.18184 3.72727C9.18184 2.22104 7.9608 1 6.45457 1C4.94834 1 3.72729 2.22104 3.72729 3.72727C3.72729 5.2335 4.94834 6.45455 6.45457 6.45455Z" stroke="black" stroke-linecap="round" stroke-linejoin="round"/>
<path d="M16 13.2727V11.9091C15.9996 11.3048 15.7985 10.7178 15.4282 10.2402C15.058 9.76263 14.5397 9.42152 13.9546 9.27045" stroke="black" stroke-linecap="round" stroke-linejoin="round"/>
<path d="M11.2273 1.08864C11.8139 1.23884 12.3339 1.58002 12.7052 2.05839C13.0765 2.53676 13.2781 3.12511 13.2781 3.73068C13.2781 4.33625 13.0765 4.9246 12.7052 5.40297C12.3339 5.88134 11.8139 6.22252 11.2273 6.37273" stroke="black" stroke-linecap="round" stroke-linejoin="round"/>
</svg>
